<svg width="77" height="39" viewBox="0 0 77 39" fill="none" xmlns="http://www.w3.org/2000/svg">
<path d="M6.10352e-05 10.9724H15.566V7.50322H6.10352e-05V10.9724Z" fill="#008DC6"/>
<path d="M6.10352e-05 17.8228H15.566V14.339H6.10352e-05V17.8228Z" fill="#74BB41"/>
<path d="M41.482 10.9726V7.50337H22.5167V38.5293H41.482V34.9957H25.8932V10.9726H41.482Z" fill="#008DC6"/>
<path d="M41.4821 17.8228V14.3392H29.2778V31.6327H41.4821V28.1805H32.7929V17.8228H41.4821" fill="#74BB41"/>
<path d="M36.2507 24.7278H41.4822V21.244H36.2507V24.7278Z" fill="#74BB41"/>
<path d="M41.4822 0.5293H0V4.01308H15.5658V38.5293H18.9885V4.01308H41.4822V0.5293Z" fill="#0D2548"/>
<path d="M49.6642 24.894C49.9839 24.894 50.2261 24.9382 50.3902 25.026C50.5541 25.1141 50.704 25.262 50.8401 25.4701L54.4878 31.0253C54.6236 31.2335 54.7894 31.3931 54.9856 31.5052C55.1813 31.6173 55.4194 31.6731 55.6995 31.6731H58.6034L54.2595 25.2661C53.9637 24.8342 53.6115 24.5021 53.204 24.2699C53.8116 24.0782 54.3533 23.8223 54.8294 23.5021C55.3053 23.1824 55.7054 22.8104 56.0292 22.3864C56.3535 21.9625 56.6012 21.4907 56.7731 20.9706C56.945 20.4506 57.0312 19.8988 57.0312 19.3149C57.0312 18.5788 56.9052 17.9048 56.6533 17.293C56.4012 16.6812 56.0054 16.1552 55.4656 15.7154C54.9255 15.2755 54.2336 14.9334 53.39 14.6894C52.5456 14.4455 51.5321 14.3234 50.348 14.3234H45.0568V31.6731H48.2843V24.894H49.6642ZM48.2843 16.8191H50.348C51.5402 16.8191 52.4258 17.055 53.0054 17.5269C53.5857 17.9992 53.8759 18.675 53.8759 19.5547C53.8759 19.9947 53.8036 20.3988 53.6597 20.7667C53.5157 21.1347 53.2978 21.4527 53.0054 21.7205C52.7135 21.9887 52.3415 22.1985 51.89 22.3504C51.4379 22.5023 50.9078 22.5784 50.3001 22.5784H48.2843V16.8191ZM67.4101 14.3234H64.1822V25.5781C64.1822 26.2339 64.1222 26.7921 64.0026 27.2518C63.8827 27.7121 63.7043 28.0856 63.4683 28.3739C63.2322 28.6616 62.9387 28.8717 62.5865 29.0035C62.2345 29.1359 61.8307 29.2017 61.3745 29.2017C61.0388 29.2017 60.7606 29.1738 60.5407 29.1175C60.3206 29.0617 60.1428 29.0336 60.0069 29.0336C59.7829 29.0336 59.6127 29.0875 59.4966 29.1955C59.3809 29.3037 59.3149 29.4458 59.2989 29.6216L59.1311 31.5413C59.587 31.6533 60.0228 31.7355 60.4387 31.7876C60.8547 31.8391 61.2789 31.8654 61.7107 31.8654C62.6545 31.8654 63.4821 31.7171 64.1945 31.4212C64.9065 31.1254 65.5002 30.7012 65.9761 30.1497C66.4521 29.5973 66.81 28.9294 67.0501 28.1457C67.2899 27.3619 67.4101 26.4821 67.4101 25.5059V14.3234" fill="#74BB41"/>
</svg>
